<svg xmlns="http://www.w3.org/2000/svg" xmlns:xlink="http://www.w3.org/1999/xlink" viewBox="0 0 100 125" version="1.1" x="0px" y="0px"><g stroke="none" stroke-width="1" fill="none" fill-rule="evenodd"><g fill="#0ff"><path d="M49.8209785,75.7487673 C37.4909785,75.7487673 27.459802,65.7257796 27.459802,53.4058449 C27.459802,52.3237878 28.3376451,51.4466612 29.4205863,51.4466612 L70.2213706,51.4466612 C71.3041157,51.4466612 72.182155,52.3237878 72.182155,53.4058449 C72.182155,65.7257796 62.1509785,75.7487673 49.8209785,75.7487673 L49.8209785,75.7487673 Z M37.5176451,37.1019102 C40.352351,37.1019102 42.6584295,39.4061061 42.6584295,42.238498 C42.6584295,45.0708898 40.352351,47.3750857 37.5176451,47.3750857 C34.6829393,47.3750857 32.3768608,45.0708898 32.3768608,42.238498 C32.3768608,39.4061061 34.6829393,37.1019102 37.5176451,37.1019102 L37.5176451,37.1019102 Z M61.1490177,37.1019102 C63.9837236,37.1019102 66.2899981,39.4061061 66.2899981,42.238498 C66.2899981,45.0708898 63.9837236,47.3750857 61.1490177,47.3750857 C58.3145079,47.3750857 56.0084295,45.0708898 56.0084295,42.238498 C56.0084295,39.4061061 58.3145079,37.1019102 61.1490177,37.1019102 L61.1490177,37.1019102 Z M97.0988216,47.7588898 C99.7280373,45.1980408 100.656469,41.4401306 99.5219589,37.9512163 C98.387253,34.4621061 95.4254883,31.9670857 91.792155,31.4394776 L71.7882334,28.5351837 C69.9464687,28.2677551 68.3549,27.1124245 67.5313706,25.4449633 L58.5852922,7.33309388 C56.9603902,4.04342857 53.6703902,2 49.9990177,2 L49.9988216,2 C46.3276451,2 43.0370569,4.04362449 41.412351,7.33309388 L32.4662726,25.4449633 C31.6425471,27.1124245 30.0511746,28.2677551 28.2094099,28.5351837 L8.20548828,31.4394776 C4.57215495,31.9670857 1.61039025,34.4621061 0.475880441,37.9510204 C-0.658825441,41.4399347 0.269605931,45.1980408 2.89882162,47.7588898 L17.3737236,61.8567837 C18.7064687,63.1549388 19.3143118,65.0241959 18.999802,66.8570122 L15.5827432,86.7638857 C14.9619589,90.3795592 16.4215667,93.9650612 19.3919589,96.1213388 C21.0703902,97.339951 23.0341157,97.9588571 25.0111746,97.9588571 C26.5327432,97.9588571 28.0625471,97.592098 29.4758804,96.8495673 L47.3678412,87.4509714 C49.0152922,86.5856 50.982351,86.5856 52.6296059,87.4509714 L70.5215667,96.8495673 C73.7715667,98.5569959 77.6354883,98.2778122 80.6056844,96.1213388 C83.5760765,93.9652571 85.0356844,90.3795592 84.4150961,86.7638857 L80.9978412,66.8570122 C80.6833314,65.0241959 81.2911746,63.1549388 82.6239197,61.8567837 L97.0988216,47.7588898 Z"/></g></g></svg>